<svg id="Layer_1" data-name="Layer 1" xmlns="http://www.w3.org/2000/svg" viewBox="0 0 200 200"><defs><style>.cls-1{fill:#231f20;}</style></defs><title>Wondicon - UI (Free)</title><path class="cls-1" d="M78.15,172.75a9.68,9.68,0,0,1-4.85-1.31l-22-12.72a9.71,9.71,0,0,1-2-15.29l10.94-11-8.44-14.63-15,4a9.72,9.72,0,0,1-12.23-9.38V87a9.71,9.71,0,0,1,12.23-9.38l15,4L60.19,67,49.25,56.07a9.71,9.71,0,0,1,2-15.29l22-12.72A9.71,9.71,0,0,1,87.55,34l4,15h16.9l4-14.95a9.71,9.71,0,0,1,14.25-5.9l22,12.72a9.71,9.71,0,0,1,2,15.29L139.81,67l8.44,14.62,15-4A9.71,9.71,0,0,1,175.44,87v25.46a9.72,9.72,0,0,1-12.23,9.38l-15-4-8.44,14.63,10.94,11a9.71,9.71,0,0,1-2,15.29l-22,12.72a9.71,9.71,0,0,1-14.25-5.9l-4-14.95H91.55l-4,14.95a9.72,9.72,0,0,1-9.4,7.21Zm13.19-32.16h17.32a9.74,9.74,0,0,1,9.39,7.2l4,14.81,21.4-12.36L132.58,139.4A9.73,9.73,0,0,1,131,127.67l8.66-15a9.71,9.71,0,0,1,10.93-4.53l14.81,4V87.39l-14.81,4a9.73,9.73,0,0,1-10.93-4.53l-8.66-15a9.73,9.73,0,0,1,1.54-11.73l10.84-10.84L122,36.9l-4,14.81a9.74,9.74,0,0,1-9.39,7.2H91.34A9.74,9.74,0,0,1,82,51.71L78,36.9,56.58,49.26,67.42,60.1A9.73,9.73,0,0,1,69,71.83l-8.66,15a9.73,9.73,0,0,1-10.93,4.53l-14.81-4v24.72l14.81-4a9.73,9.73,0,0,1,10.93,4.53l8.66,15a9.73,9.73,0,0,1-1.54,11.73L56.58,150.24,78,162.6l4-14.81A9.74,9.74,0,0,1,91.34,140.59Zm-31-73.42h0Z"/><path class="cls-1" d="M100,130a30,30,0,1,1,30-30A30,30,0,0,1,100,130Zm0-50a20,20,0,1,0,20,20A20,20,0,0,0,100,80Z"/></svg>