<?xml version="1.0" standalone="no"?>
<!DOCTYPE svg PUBLIC "-//W3C//DTD SVG 20010904//EN"
 "http://www.w3.org/TR/2001/REC-SVG-20010904/DTD/svg10.dtd">
<svg version="1.0" xmlns="http://www.w3.org/2000/svg"
 width="67.000000pt" height="67.000000pt" viewBox="0 0 67.000000 67.000000"
 preserveAspectRatio="xMidYMid meet">

<g transform="translate(0.000000,67.000000) scale(0.100000,-0.100000)"
fill="#000000" stroke="none">
<path d="M310 464 c-9 -22 -15 -25 -48 -22 l-37 3 3 -38 c2 -31 -1 -39 -23
-49 -32 -15 -33 -44 0 -52 23 -6 25 -11 23 -49 -2 -33 0 -41 12 -38 55 14 60
13 70 -13 12 -33 38 -33 50 0 10 26 15 27 70 13 12 -3 14 5 12 38 -2 38 0 43
23 49 33 8 32 37 0 52 -22 10 -25 18 -23 49 l3 38 -37 -3 c-33 -3 -39 0 -48
22 -5 14 -16 26 -25 26 -9 0 -20 -12 -25 -26z m79 -106 c14 -25 14 -29 -5 -55
-29 -39 -66 -41 -93 -7 -36 46 -9 97 48 92 26 -2 39 -10 50 -30z"/>
</g>
</svg>
